
<global>
amp_veltrack=0
ampeg_release=0.85
</global>

<group>
group_label=Group_0-45
lpc_hicc1=42
lpc_locc1=0

<region>
hikey=a#4
hivel=127
lokey=a4
lovel=1
lpc=/rkaQn/txcKyM7dCXOMJwk9lwkDdZv2/PYckwAA9DcE4zOJB/lrgwYwpDkHy2wdBGmfNv7HL98BLrOC/tjXtQAPytz+6Qs/AI95rQAzqbsAOWZJAcPANwM2YAcDiPTNA
lpc_rms=-28.49
pitch_keycenter=a#4
sample=Clarinet_scoop_PP_A#4.opus
</region>

<region>
hikey=a#5
hivel=127
lokey=a5
lovel=1
lpc=sFKtQjMqe8NvxJVDzqAqw4d7JkJPiatBLSBWwpu8hEL6NyrCWVFSQbo69z2JMuNAQ1wdwRbrN0Ef+MO/gncrwawiU0GUPAdB1IadwWjTHkHT0aq+wZSjQS7yA8JxkYxB
lpc_rms=-18.28
pitch_keycenter=a#5
sample=Clarinet_scoop_PP_A#5.opus
</region>

<region>
hikey=c5
hivel=127
lokey=b4
lovel=1
lpc=nathQhmcFMMlhwpDNNJlwsfYoEEeT4S9AyZewcemNMA385tBI65swcmOdT9A1P1AKn2ywCd2oj5qe03AEsazQFxNSkBgFJLAdA5dwKaErkBzyF7AeV2zPmNvpj9HdaQ+
lpc_rms=-26.92
pitch_keycenter=c5
sample=Clarinet_scoop_PP_C5.opus
</region>

<region>
hikey=c6
hivel=127
lokey=b5
lovel=1
lpc=b9cwQmA59cJjTR1DKg/gwiVaNkKlHnJAL6KcwTLpBUHqbbBBxZ4WwnWJ7UElVw6/j3CGwfpbNEHAMZ9AAJ2NwAzgBMDFCjJBZy5PwVfTr0CgHaVBQTQmwjU0AkJr2w3B
lpc_rms=-23.44
pitch_keycenter=c6
sample=Clarinet_scoop_PP_C6.opus
</region>

<region>
hikey=d5
hivel=127
lokey=c#5
lovel=1
lpc=M7c8Qngp9MJNgPpCQ2+RwtIJAEKYDKrABNBMwF0B+b9KcENBumWfwcMBWkEQVvE+3ssAwTo6ykCFXBe/Tq86vz0IX74IQT4/YLmUPtSWhUB9iRfBdzA0Qfg3T8GvF/9A
lpc_rms=-27.51
pitch_keycenter=d5
sample=Clarinet_scoop_PP_D5.opus
</region>

<region>
hikey=C7
hivel=127
lokey=c#6
lovel=1
lpc=jYI1Qmv1vMLyUcNCehpRwmIHukGpoj6/snMWv5JZAz+E4D1BVL0LwXmmo0CyYRhBjlTvwJfiB0Gy8Ci+4bGAv+cW7UCXdgFAdfahwOQ24kBJv19A/dDJwf4AB0LGZWrB
lpc_rms=-17.65
pitch_keycenter=D6
sample=Clarinet_scoop_PP_D6.opus
</region>

<region>
hikey=e5
hivel=127
lokey=d#5
lovel=1
lpc=12GTQuJ3Q8MN3FhDY40Aw2+KF0KfM19B3Pe9wfTKR0GKZKZAqvpfwWIxB0HIwdRA1hpRwZLshEBdILY/TfR7QKwea0AqQxbBPDRlQHqux0DxWLPAbaEJP4dwq8DEQAdB
lpc_rms=-23.34
pitch_keycenter=e5
sample=Clarinet_scoop_PP_E5.opus
</region>

<region>
hikey=f#5
hivel=127
lokey=f5
lovel=1
lpc=pJ5pQrVyF8O7VCdDoO7CwqPeGkE2+VZCJMVSwpRrqkGCZXjAnD85QKjbXsFah+1BcgUGwuzL7kHeIK7Bf/iyQRZ3rMH0k2NB2HcFvwK0V8GYxTZBUzu+QA5RHcFFRqNA
lpc_rms=-21.39
pitch_keycenter=f#5
sample=Clarinet_scoop_PP_F#5.opus
</region>

<region>
hikey=g#4
hivel=127
lokey=C4
lovel=1
lpc=RLwCQwhMdsNTP9xCkgjmwOOw+EEMGL1A45CVwRHcgT+r2+fAe3KzP5/mVMD3BfG/XnQyQSOmiz0t/169vAYrwWxoOEDQ8bBBbLerwWMZEcAh+OnAgulbQbol6EAsiaXA
lpc_rms=-23.39
pitch_keycenter=g#4
sample=Clarinet_scoop_PP_G#4.opus
</region>

<region>
hikey=g#5
hivel=127
lokey=g5
lovel=1
lpc=1H7AQlEpisNVeKxDVIxuwz05rkJnng5CQUWkwutyVEIAEWvAzCKlwQH9qEE3Xm9Ai5y7wStcs0Ekgz/BhFJqwICny0Hu+AnBdXq/wcAxFELg/gvCLHzKQcVNycA17UE+
lpc_rms=-18.25
pitch_keycenter=g#5
sample=Clarinet_scoop_PP_G#5.opus
</region>
</group>

<group>
group_label=Group_46-90
lpc_hicc1=84
lpc_locc1=43

<region>
hikey=a#4
hivel=127
lokey=a4
lovel=1
lpc=cwqsQaf5cMKPM5BC4HRVwvoTAUKDfW3BuCcIPk3PED/tDDlB19iZwXHHVUERg8Y9cCBkwCW7G8DfzBlAfOGXP57ijT/pM+S/dcefwIIsG0HjtevAY5ocQJf7cz6R2Ie8
lpc_rms=-23.87
pitch_keycenter=a#4
sample=Clarinet_scoop_MF_A#4.opus
</region>

<region>
hikey=a#5
hivel=127
lokey=a5
lovel=1
lpc=WWcZQr3N0MLlO/dCimGewjnYCEI9iUW/i6q0wSSV00EEvhXB0drjwJZqvkHyzsjBFLGXQE9Bn0F7uZfBeZo7QOEFc0FDiHzB/V/VPwK4OkGM8m3Bq9rRQcBp5cGPXlFB
lpc_rms=-15.48
pitch_keycenter=a#5
sample=Clarinet_scoop_MF_A#5.opus
</region>

<region>
hikey=c5
hivel=127
lokey=b4
lovel=1
lpc=ZeZkQU43GsKNPDhCjzUNwvnno0GzDhTBRxoIQV0aTMGVMTtBjoPpwHgCG0CKCNo/qkYaPlcblMCzechAnT3NwB32EECKYL5AHNIRwWPF+UAdW4PAM0BBwEelxUCwrxjA
lpc_rms=-21.08
pitch_keycenter=c5
sample=Clarinet_scoop_MF_C5.opus
</region>

<region>
hikey=c6
hivel=127
lokey=b5
lovel=1
lpc=HC2IQTmeIMLtMytCeY6+wZJiB0H/EzrA/azLQI/ERMHyyIVBANQ9wSSkn0CluIk/rNYFwGbrsb59y9JA5S/XwIulvT3FqBBBPJIawTbKu0DEbaO/otB/PxzHTMBprxlA
lpc_rms=-18.24
pitch_keycenter=c6
sample=Clarinet_scoop_MF_C6.opus
</region>

<region>
hikey=d5
hivel=127
lokey=c#5
lovel=1
lpc=FqfnQaLuq8I6EOVCOse/wgjPY0LmtLDBStZiQRul1cE3hABCg6uvwQyY1ECIV+VANLcCwUsxt8AFSmNBsrDJwK2pwMAV5k5BW/w/wWvfNUEmdHXBM7ajQa3Ol8HOQwNB
lpc_rms=-18.72
pitch_keycenter=d5
sample=Clarinet_scoop_MF_D5.opus
</region>

<region>
hikey=C7
hivel=127
lokey=c#6
lovel=1
lpc=PzzIQXraP8IADDBC98miwel8gUHOUDPB5eIDQYhJvMB3tWtBdpGzwIg3msAHakdBqSLTwFpGU0GzFGzBTi9FQYVSvL/2025A27Stv7EMZj8ebw89HQErvxfwQ0CboCi/
lpc_rms=-13.48
pitch_keycenter=D6
sample=Clarinet_scoop_MF_D6.opus
</region>

<region>
hikey=e5
hivel=127
lokey=d#5
lovel=1
lpc=pNw5QnyaDsMVw0BD7qMTw3zmeEKJeZlA7hHBwTI+VECDsddBCjIbwvsc/0EkkmzB4dxYwE+jXkFaX2DB15rVQBtDAEFNoGTBQgGsQPkt+kCAhDTBJAsFQenE28D+qZZA
lpc_rms=-16.91
pitch_keycenter=e5
sample=Clarinet_scoop_MF_E5.opus
</region>

<region>
hikey=f#5
hivel=127
lokey=f5
lovel=1
lpc=Q8htQfnZD8I8Ah9CMQm+weCzxED9WS4/We2LQHqE6sDvD0ZAczAtQEIEG8AN5sk/Ek7kv8yDzD9b+7G+f0CCPzPfwr7wSwq/sV4XQH0Ll79DXonAbAsTQXbn7sC92mFA
lpc_rms=-15.27
pitch_keycenter=f#5
sample=Clarinet_scoop_MF_F#5.opus
</region>

<region>
hikey=g#4
hivel=127
lokey=C4
lovel=1
lpc=w9uUQvsAIcN/O+xCRfwswsK170EWAX3BZPNJQIEK4MD/dLJAfSBXPuY+TcHOFS9BCPW4QKqRaL+lW/3AVOZFvw6LLUCknSm+Vue5QDs2iL6+LQrBZXIUQAQjAcAJNM1A
lpc_rms=-18.91
pitch_keycenter=g#4
sample=Clarinet_scoop_MF_G#4.opus
</region>

<region>
hikey=g#5
hivel=127
lokey=g5
lovel=1
lpc=IlYXQmVdycKGjuxCCledwmzzHkIcCJjB0uhrQWOskcEU3IVBhLfjv7cbkMCY6plAclXdwCs2tkBEoUlAcjKNwEZtKL9gej5BfYB8wfADCkFHGZY/2b/tP7uAzMCvb5tA
lpc_rms=-14.39
pitch_keycenter=g#5
sample=Clarinet_scoop_MF_G#5.opus
</region>
</group>

<group>
group_label=Group_91-127
lpc_hicc1=127
lpc_locc1=85

<region>
hikey=a#4
hivel=127
lokey=a4
lovel=1
lpc=J9sQQSo7tsG4oNRB4wuvwXsGcUHMd/HADXsVQPriC8CfotdAtDotweK1BkEihjHA22X6PtoMQj87yDXAFjUNQBmNxj5vw2u/4qFmvukd2D/Br7C/uaHQva/anj7+f+U9
lpc_rms=-20.72
pitch_keycenter=a#4
sample=Clarinet_scoop_FF_A#4.opus
</region>

<region>
hikey=a#5
hivel=127
lokey=a5
lovel=1
lpc=/KxuQQ4z8MHQb+RBY+WFwZXFAEEY14JALntEwRdeQ0HGQtXACsjFQOHDUsBNTiVAawFEwCyLVEAbyeO+fQvVPSqOzj8KeQXAazCYQE6EucCOuN9Aw9KNwPhrAUCfapY+
lpc_rms=-8.53
pitch_keycenter=a#5
sample=Clarinet_scoop_FF_A#5.opus
</region>

<region>
hikey=c5
hivel=127
lokey=b4
lovel=1
lpc=luUtQfkt38FS5gRCz8zZwUcdhUGiYZ7A+pUUPeNFP8B9/hxBzPiAwUcUbUHF2NXA5fNmPoqFW0BBwa3Apc9yQNANpL/BE5g/Qu2bv5poBUAk8fm/reyxv96gQUBij3a/
lpc_rms=-18.93
pitch_keycenter=c5
sample=Clarinet_scoop_FF_C5.opus
</region>

<region>
hikey=c6
hivel=127
lokey=b5
lovel=1
lpc=U6EhQaoNmsF7XadB8ZVXwaxA6EAdhOa+PPKIv+svNb8DHrxAJrGdwOxjO0Cxm3A/LJ1Fv9b9Jz9uer8/w4KtvTcK175UP+4/CDWBv+2iHkD5Boa/YV5tP55jFL94d+c9
lpc_rms=-12.73
pitch_keycenter=c6
sample=Clarinet_scoop_FF_C6.opus
</region>

<region>
hikey=d5
hivel=127
lokey=c#5
lovel=1
lpc=FLg5QTNA+sFKIhtCwxj2wQ7Wg0EXqF3AqlbJv5llCD/xJ45A1FI1wW1sU0G95OPATzJFPyHaBECd+i/AwVoUQPtNEsCN7ipAbI3Cv0XFkz9+gsS/qt0fP1sSdDuSbV8+
lpc_rms=-16.39
pitch_keycenter=d5
sample=Clarinet_scoop_FF_D5.opus
</region>

<region>
hikey=C7
hivel=127
lokey=c#6
lovel=1
lpc=WikbQZkyc8FB2lhBZVrCwAn6LEDgi+0/0WgAvylwjT4zAUFAxwmfvk96jL9qZ59AbwdjwJairUDPLmHAhA9AQL92Gz9hUD8/e7jjPimOnT9eZdW9I16gv5/RKz+n4Y8/
lpc_rms=-10.76
pitch_keycenter=D6
sample=Clarinet_scoop_FF_D6.opus
</region>

<region>
hikey=e5
hivel=127
lokey=d#5
lovel=1
lpc=uXTMQWeBh8JxBqxCZUiVwj93OkL0fTDBfbcjwfGJAUEOwhVBEfuswe8xuEHpDFrBnamAwEUeekEu+2DBRG0kQe+Jz8B8my1AtMbCP1R0xT9bdvHAEXvXQCSZjMC6vFxA
lpc_rms=-12.74
pitch_keycenter=e5
sample=Clarinet_scoop_FF_E5.opus
</region>

<region>
hikey=f#5
hivel=127
lokey=f5
lovel=1
lpc=rZKDQSw6HsJ2KTVCdXkMwpmOqkHfrsnAk8Clv/p4az/+G/w/rbuRv6mu/LpynF9AJFnmwHT6ukCC5uW/YssqQIWNVsA45qpAVSXxwHKIA0GAjcPAgUBfQObjEsCeFBZA
lpc_rms=-15.12
pitch_keycenter=f#5
sample=Clarinet_scoop_FF_F#5.opus
</region>

<region>
hikey=g#4
hivel=127
lokey=C4
lovel=1
lpc=+KnAQQAgdsIs0oZCvx9AwihN4EGSkf/ASMuZwFUzuj/U29xAYWgcwbmWDEG207fAFjFWPwDMiECwgwvByHDtQFdZwT4se1bA226VPvsuW0D+MdXAv9jcQBjMmsDevR1A
lpc_rms=-17.48
pitch_keycenter=g#4
sample=Clarinet_scoop_FF_G#4.opus
</region>

<region>
hikey=g#5
hivel=127
lokey=g5
lovel=1
lpc=bgd5QUxbBcKdygtCs2HPwSHvhUFB/a2/ET8OwY4z70Bn6ba/p7wvQEZrEcAQZBFAjvyWwN9LsEDzrci+k7Wtv0PD6z9wK7K/N01LP5qldEB9Q6TAMreEQBLcFMBpbQFA
lpc_rms=-12.21
pitch_keycenter=g#5
sample=Clarinet_scoop_FF_G#5.opus
</region>
</group>